<svg width="20" height="20" viewBox="0 0 20 20" fill="none" xmlns="http://www.w3.org/2000/svg">
<path d="M14.8333 17.5002C14.8333 15.7321 14.131 14.0364 12.8807 12.7861C11.6305 11.5359 9.93478 10.8335 8.16667 10.8335C6.39856 10.8335 4.70286 11.5359 3.45262 12.7861C2.20238 14.0364 1.5 15.7321 1.5 17.5002" stroke="#676562" stroke-width="1.66667" stroke-linecap="round" stroke-linejoin="round"/>
<path d="M8.16667 10.8333C10.4679 10.8333 12.3333 8.96785 12.3333 6.66667C12.3333 4.36548 10.4679 2.5 8.16667 2.5C5.86548 2.5 4 4.36548 4 6.66667C4 8.96785 5.86548 10.8333 8.16667 10.8333Z" stroke="#676562" stroke-width="1.66667" stroke-linecap="round" stroke-linejoin="round"/>
<path d="M9.23398 13.5H7.43398M9.23398 13.5L9.57058 11.7896C9.60061 11.6994 9.6088 11.6035 9.59447 11.5095C9.58014 11.4156 9.5437 11.3264 9.48817 11.2493C9.43263 11.1722 9.35957 11.1094 9.27501 11.0661C9.19045 11.0227 9.0968 11.0001 9.00178 11H7.66618C7.57116 11.0001 7.47752 11.0227 7.39296 11.0661C7.3084 11.1094 7.23534 11.1722 7.1798 11.2493C7.12426 11.3264 7.08783 11.4156 7.0735 11.5095C7.05917 11.6035 7.06736 11.6994 7.09738 11.7896L7.43398 13.5M9.23398 13.5L9.83398 17.3L8.33398 18.8L6.83398 17.3L7.43398 13.5" stroke="#676562" stroke-width="1.50021" stroke-linecap="round" stroke-linejoin="round"/>
</svg>
