<svg width="130" height="20" viewBox="0 0 130 20" fill="none" xmlns="http://www.w3.org/2000/svg">
<g clip-path="url(#clip0_1962_2077)">
<path d="M16.1091 6.87598L14.5792 8.97904L14.5674 8.99805V11.6107H16.0774V13.9229H16.8957V6.87598H16.1091ZM15.3857 10.8235V9.24525L16.0774 8.2983V10.8235H15.3857Z" fill="#FF9500"/>
<path d="M12.8556 8.69381L12.4326 9.20722V6.87598H11.6144V9.20722L11.1914 8.69381V6.87598H10.3691V9.22623L11.6144 10.5649V13.9229H12.4326V10.5649L13.6778 9.22623V6.87598H12.8556V8.69381Z" fill="#FF9500"/>
<path d="M23.9952 18.3761L20.2477 14.7709C21.228 13.4969 21.8091 11.9186 21.8091 10.2149C21.8091 5.98214 18.2277 2.53662 13.8279 2.53662C9.42819 2.53662 5.84277 5.98214 5.84277 10.2149C5.84277 14.4476 9.42424 17.8932 13.824 17.8932C15.5949 17.8932 17.2315 17.3341 18.5597 16.391L22.3072 19.9962L23.9952 18.3723V18.3761ZM13.824 15.7635C10.6457 15.7635 8.05648 13.2725 8.05648 10.2149C8.05648 7.15727 10.6457 4.6663 13.824 4.6663C17.0022 4.6663 19.5915 7.15727 19.5915 10.2149C19.5915 13.2725 17.0022 15.7635 13.824 15.7635Z" fill="#FF9500"/>
<path d="M3.9375 11.3635V9.07031H-0.00369143V11.3635H3.9375Z" fill="#FF9500"/>
<path d="M4.23722 7.63525L5.14941 5.5166L1.50823 4.06562L0.59603 6.18427L4.23722 7.63525Z" fill="#FF9500"/>
<path d="M5.99319 4.30172L7.67871 2.68018L4.89187 -0.000887199L3.20635 1.62066L5.99319 4.30172Z" fill="#FF9500"/>
<path d="M45.2429 9.97119L42.3216 13.9834V2.5249H38.9141V19.5738H42.4125L49.4015 9.97119H45.2429Z" fill="#FF9500"/>
<path d="M32.8342 19.5738L36.0006 15.1775V2.5249H32.5931V14.1469L28.6875 19.5738H32.8342Z" fill="#FF9500"/>
<path d="M125.838 9.97119L122.92 13.9834V2.5249H119.513V19.5738H123.011L130 9.97119H125.838Z" fill="#FF9500"/>
<path d="M113.433 19.5738L116.599 15.1775V2.5249H113.188V14.1469L109.286 19.5738H113.433Z" fill="#FF9500"/>
<path d="M109.033 8.51465H99.5498V11.7928H109.033V8.51465Z" fill="#FF9500"/>
<path d="M54.9477 8.51465H52.0264V13.6221H54.9477V8.51465Z" fill="#FF9500"/>
<path d="M59.1977 8.51465H56.2764V13.6221H59.1977V8.51465Z" fill="#FF9500"/>
<path d="M64.297 14.3523V8.51465H60.8894V13.2988L56.3711 19.5738H60.5178L64.2772 14.3523H64.297Z" fill="#FF9500"/>
<path d="M85.0146 12.9683V16.4594L95.1503 20V16.5089L85.0146 12.9683Z" fill="#FF9500"/>
<path d="M85.0146 11.0248L95.1503 14.5654V11.0743L85.0146 7.53369V11.0248Z" fill="#FF9500"/>
<path d="M95.1503 9.13088V5.63972L85.0146 2.09912V5.59028L95.1503 9.13088Z" fill="#FF9500"/>
<path d="M75.116 4.49486L76.5509 2.5249H72.3884L66.9688 9.97119H71.1274L72.7283 7.77685H77.1044V10.6101L70.5818 19.5738H74.7404L80.6107 11.5076V4.49486H75.116Z" fill="#FF9500"/>
</g>
<defs>
<clipPath id="clip0_1962_2077">
<rect width="130" height="20" fill="white"/>
</clipPath>
</defs>
</svg>
