<svg width="20" height="20" viewBox="0 0 20 20" fill="none" xmlns="http://www.w3.org/2000/svg">
<path d="M15.0003 17.5002C15.0003 15.7321 14.2979 14.0364 13.0477 12.7861C11.7975 11.5359 10.1018 10.8335 8.33366 10.8335C6.56555 10.8335 4.86986 11.5359 3.61961 12.7861C2.36937 14.0364 1.66699 15.7321 1.66699 17.5002" stroke="#676562" stroke-width="1.66667" stroke-linecap="round" stroke-linejoin="round"/>
<path d="M8.33366 10.8333C10.6348 10.8333 12.5003 8.96785 12.5003 6.66667C12.5003 4.36548 10.6348 2.5 8.33366 2.5C6.03247 2.5 4.16699 4.36548 4.16699 6.66667C4.16699 8.96785 6.03247 10.8333 8.33366 10.8333Z" stroke="#676562" stroke-width="1.66667" stroke-linecap="round" stroke-linejoin="round"/>
<path d="M18.3333 16.6668C18.3333 13.8585 16.6667 11.2502 15 10.0002C15.5478 9.58914 15.9859 9.0494 16.2755 8.42872C16.565 7.80804 16.6971 7.12555 16.66 6.44166C16.6229 5.75777 16.4178 5.09357 16.0629 4.50783C15.7079 3.92209 15.2141 3.43288 14.625 3.0835" stroke="#676562" stroke-width="1.66667" stroke-linecap="round" stroke-linejoin="round"/>
</svg>
